<?xml version="1.0" standalone="no"?>
<!DOCTYPE svg PUBLIC "-//W3C//DTD SVG 1.1//EN" "http://www.w3.org/Graphics/SVG/1.1/DTD/svg11.dtd" >
<svg xmlns="http://www.w3.org/2000/svg">
<metadata>Generated by IcoMoon</metadata>
<defs>
<font id="mtpo" horiz-adv-x="1024">
<font-face units-per-em="1024" ascent="960" descent="-64" />
<missing-glyph horiz-adv-x="1024" />
<glyph unicode="&#x20;" horiz-adv-x="512" d="" />
<glyph unicode="&#xe900;" glyph-name="analytics" d="M347.429 100.571c-8.83 0.009-16.402-6.304-18-14.982-1.589-8.687 3.25-17.268 11.509-20.402 8.25-3.134 17.571 0.089 22.134 7.643 4.563 7.563 3.071 17.304-3.536 23.152-3.339 2.955-7.652 4.589-12.107 4.589zM219.429 192c-8.83 0.009-16.402-6.304-18-14.982-1.589-8.687 3.25-17.268 11.509-20.402 8.25-3.134 17.571 0.089 22.134 7.643 4.563 7.563 3.071 17.304-3.536 23.152-3.339 2.955-7.652 4.589-12.107 4.589zM475.429 210.286c0-10.098-8.187-18.286-18.286-18.286s-18.286 8.187-18.286 18.286 8.187 18.286 18.286 18.286 18.286-8.187 18.286-18.286zM91.429 82.286c-8.83 0.009-16.402-6.304-18-14.982-1.589-8.687 3.25-17.268 11.509-20.402 8.25-3.134 17.571 0.089 22.134 7.643 4.563 7.563 3.071 17.304-3.536 23.152-3.339 2.955-7.652 4.589-12.107 4.589zM219.429 429.714v108.196c-55.071-9.321-94.357-58.536-91.241-114.304 3.125-55.768 47.652-100.295 103.42-103.42 55.768-3.116 104.982 36.17 114.304 91.241h-108.196c-10.098 0-18.286 8.187-18.286 18.286zM950.857-64v36.571h-91.429v-18.286h-36.571v18.286h-109.714v-18.286h-36.571v18.286h-91.429v-36.571h18.286v18.286h36.571v-18.286h109.714v18.286h36.571v-18.286h109.714v18.286h36.571v-18.286zM1024 9.143v36.571h-91.429v-18.286h-36.571v18.286h-109.714v-18.286h-36.571v18.286h-91.429v-36.571h18.286v18.286h36.571v-18.286h109.714v18.286h36.571v-18.286h109.714v18.286h36.571v-18.286zM310.857 592.768v-89.911h89.911c-7.866 46.009-43.902 82.045-89.911 89.911zM603.429 795.429h138.714l-138.714 138.714zM548.571-9.143c0 10.098 8.187 18.286 18.286 18.286h54.857v36.571h-54.857c-10.098 0-18.286 8.187-18.286 18.286v73.143c0 10.098 8.187 18.286 18.286 18.286h18.286v36.571c-10.098 0-18.286 8.187-18.286 18.286v73.143c0 10.098 8.187 18.286 18.286 18.286h80.107c-77.964 51.491-114.723 146.75-91.554 237.268 23.179 90.518 101.179 156.393 194.304 164.089v55.786h-182.857c-10.098 0-18.286 8.187-18.286 18.286v182.857h-566.857v-1024h548.571zM146.286 886.857h292.571v-36.571h-292.571zM146.286 813.714h292.571v-36.571h-292.571zM365.714 448c10.098 0 18.286-8.187 18.286-18.286 0-80.795-65.491-146.286-146.286-146.286s-146.286 65.491-146.286 146.286 65.491 146.286 146.286 146.286c10.098 0 18.286-8.187 18.286-18.286v-109.714zM292.571 466.286c-10.098 0-18.286 8.187-18.286 18.286v128c0 10.098 8.187 18.286 18.286 18.286 80.75-0.089 146.196-65.536 146.286-146.286 0-10.098-8.187-18.286-18.286-18.286zM256 704v36.571h182.857v-36.571zM36.571 886.857h73.143v-36.571h-73.143zM36.571 813.714h73.143v-36.571h-73.143zM36.571 740.571h182.857v-36.571h-182.857zM36.571 667.429h73.143v-36.571h-73.143zM457.143 155.429c-6.759 0.036-13.455 1.33-19.75 3.821l-42.625-49.759c12.491-21.563 8.83-48.83-8.902-66.339s-45.054-20.821-66.455-8.071c-21.402 12.759-31.482 38.366-24.518 62.295l-44.125 31.429c-17.339-12.17-40.152-13.187-58.509-2.616l-49.813-42.527c9.393-24.804-0.429-52.768-23.268-66.25s-52.071-8.571-69.241 11.643c-17.179 20.205-17.312 49.848-0.321 70.214 16.982 20.366 46.17 25.545 69.134 12.277l49.732 42.473c-8.661 22.25-1.902 47.536 16.714 62.491 18.607 14.946 44.759 16.107 64.616 2.848 19.848-13.25 28.821-37.848 22.152-60.768l44.161-31.464c14.902 10.357 33.973 12.67 50.929 6.179l42.679 49.848c-4.83 8.232-7.402 17.589-7.446 27.134 0 30.295 24.563 54.857 54.857 54.857s54.857-24.563 54.857-54.857-24.563-54.857-54.857-54.857zM786.286 667.429c-100.991 0-182.857-81.866-182.857-182.857s81.866-182.857 182.857-182.857 182.857 81.866 182.857 182.857c-0.107 100.946-81.911 182.75-182.857 182.857zM786.286 320c-90.893 0-164.571 73.679-164.571 164.571s73.679 164.571 164.571 164.571 164.571-73.679 164.571-164.571c-0.098-90.848-73.723-164.473-164.571-164.571zM804.571 429.714c10.098 0 18.286 8.187 18.286 18.286s-8.187 18.286-18.286 18.286zM950.857 82.286v36.571h-91.429v-18.286h-36.571v18.286h-109.714v-18.286h-36.571v18.286h-91.429v-36.571h18.286v18.286h36.571v-18.286h109.714v18.286h36.571v-18.286h109.714v18.286h36.571v-18.286zM786.286 612.571c-70.696 0-128-57.304-128-128s57.304-128 128-128 128 57.304 128 128c-0.080 70.661-57.339 127.92-128 128zM859.429 448c0-30.295-24.563-54.857-54.857-54.857v-18.286h-36.571v18.286c-30.295 0-54.857 24.563-54.857 54.857h36.571c0-10.098 8.187-18.286 18.286-18.286v36.571c-30.295 0-54.857 24.563-54.857 54.857s24.563 54.857 54.857 54.857v18.286h36.571v-18.286c30.295 0 54.857-24.563 54.857-54.857h-36.571c0 10.098-8.187 18.286-18.286 18.286v-36.571c30.295 0 54.857-24.563 54.857-54.857zM603.429 265.143v-36.571h18.286v18.286h36.571v-18.286h109.714v18.286h36.571v-18.286h109.714v18.286h36.571v-18.286h18.286v36.571h-91.429v-18.286h-36.571v18.286h-109.714v-18.286h-36.571v18.286zM749.714 521.143c0-10.098 8.187-18.286 18.286-18.286v36.571c-10.098 0-18.286-8.187-18.286-18.286zM969.143 155.429h18.286v36.571h-91.429v-18.286h-36.571v18.286h-109.714v-18.286h-36.571v18.286h-91.429v-36.571h18.286v18.286h36.571v-18.286h109.714v18.286h36.571v-18.286h109.714v18.286h36.571z" />
<glyph unicode="&#xe901;" glyph-name="bank-building" d="M977.028 29.313h-930.491c-25.708 0-46.537-20.828-46.537-46.558 0-25.687 20.828-46.515 46.537-46.515h930.469c25.708 0 46.537 20.828 46.537 46.515-0.022 25.73-20.85 46.558-46.515 46.558zM104.685 150.295c-25.708 0-46.537-20.828-46.537-46.537s20.828-46.558 46.537-46.558h814.172c25.708 0 46.537 20.85 46.537 46.558s-20.828 46.537-46.537 46.537h-11.612v418.742h11.612c12.876 0 23.246 10.414 23.246 23.246s-10.414 23.246-23.246 23.246h-814.172c-12.854 0-23.246-10.414-23.246-23.246s10.414-23.246 23.246-23.246h11.634v-418.72h-11.634zM814.172 569.036v-418.72h-139.566v418.72h139.566zM581.532 569.036v-418.72h-139.566v418.72h139.566zM209.349 569.036h139.566v-418.72h-139.566v418.72zM46.537 657.36h930.469c0.153 0 0.327 0 0.458 0 25.73 0 46.537 20.828 46.537 46.537 0 20.436-13.159 37.756-31.438 44.031l-461.662 207.737c-12.135 5.447-26.013 5.447-38.17 0l-465.278-209.349c-20.022-9.020-31.024-30.763-26.406-52.201 4.597-21.438 23.551-36.754 45.491-36.754z" />
<glyph unicode="&#xe902;" glyph-name="clipboard" d="M988.69 342.069v-229.517h-70.621v176.552h-35.31v-176.552h-70.621v141.241h-35.31v-141.241h-70.621v105.931h-35.31v-105.931h-70.621v70.621h-35.31v-105.931h459.034v264.828zM105.931 218.483h35.31v-105.931h-35.31zM176.552 147.862h211.862v-35.31h-211.862zM176.552 218.483h211.862v-35.31h-211.862zM494.345 165.517c0 4.147-2.31 7.888-6.052 9.767l-64.569 32.267v-84.103l64.586 32.284c3.724 1.871 6.034 5.621 6.034 9.784zM776.828 722.948c11.388 3.224 23.164 5.526 35.31 6.638v71.517c0 29.198-23.767 52.966-52.966 52.966h-123.586v-35.31h141.241zM70.621 218.483h-17.655c-29.198 0-52.966-23.767-52.966-52.966s23.767-52.966 52.966-52.966h17.655zM105.931 818.759h141.241v35.31h-123.586c-29.198 0-52.966-23.767-52.966-52.966v-547.31h35.31zM600.276 889.379h-105.931v17.655c0 29.198-23.767 52.966-52.966 52.966s-52.966-23.767-52.966-52.966v-17.655h-105.931v-105.931h317.793zM353.103 818.759h-35.31v35.31h35.31zM564.966 818.759h-35.31v35.31h35.31zM670.897 536.276c0-87.621 71.276-158.897 158.897-158.897s158.897 71.276 158.897 158.897-71.276 158.897-158.897 158.897-158.897-71.276-158.897-158.897zM829.793 518.621c-29.198 0-52.966 23.767-52.966 52.966 0 22.983 14.81 42.405 35.31 49.716v38.56h35.31v-38.56c20.5-7.31 35.31-26.733 35.31-49.716h-35.31c0 9.741-7.914 17.655-17.655 17.655s-17.655-7.914-17.655-17.655 7.914-17.655 17.655-17.655c29.198 0 52.966-23.767 52.966-52.966 0-22.983-14.81-42.405-35.31-49.716v-38.56h-35.31v38.56c-20.5 7.31-35.31 26.733-35.31 49.716h35.31c0-9.741 7.914-17.655 17.655-17.655s17.655 7.914 17.655 17.655-7.914 17.655-17.655 17.655zM812.138 289.103v53.862c-12.147 1.095-23.922 3.397-35.31 6.638v-60.483h35.31zM776.828-28.69h-670.897v105.931h-35.31v-88.276c0-29.198 23.767-52.966 52.966-52.966h635.586c29.198 0 52.966 23.767 52.966 52.966v52.966h-35.31zM247.172 783.448h-105.931v-529.655h268.991l93.879-46.931c15.741-7.905 25.543-23.741 25.543-41.345v52.966h105.931v35.31h105.931v109.707c-62.784 32.224-105.931 97.474-105.931 172.776s43.147 140.552 105.931 172.776v74.397h-105.931v-35.31h-388.414zM600.276 324.414h-423.724v35.31h423.724zM600.276 395.034h-423.724v35.31h423.724zM600.276 465.655h-423.724v35.31h423.724zM600.276 536.276h-423.724v35.31h423.724zM600.276 606.897h-423.724v35.31h423.724zM388.414 712.828v-35.31h-211.862v35.31zM504.129 124.172l-93.879-46.931h-269.009v-70.621h600.276v35.31h-211.862v123.586c0-17.603-9.802-33.457-25.526-41.345z" />
<glyph unicode="&#xe903;" glyph-name="file" d="M1018.744-6.572l-202.134 346.567c-6.929 11.861-19.251 18.944-32.989 18.944s-26.077-7.083-32.989-18.944l-202.168-346.567c-6.98-11.964-7.031-26.265-0.137-38.263s19.268-19.166 33.109-19.166h404.32c13.841 0 26.214 7.168 33.092 19.166 6.912 11.998 6.878 26.316-0.102 38.263zM989.27-27.836c-0.512-0.939-1.57-2.031-3.499-2.031h-404.32c-1.946 0-2.987 1.109-3.516 2.031-0.529 0.939-0.956 2.389 0.017 4.062l202.151 346.567c0.973 1.673 2.44 2.014 3.516 2.014 1.058 0 2.526-0.358 3.499-2.014l202.151-346.55c0.956-1.69 0.546-3.14 0-4.079zM785.054 243.195c-9.421 0-17.066-7.646-17.066-17.066v-136.531c0-9.421 7.646-17.066 17.066-17.066s17.066 7.646 17.066 17.066v136.531c0 9.438-7.646 17.066-17.066 17.066zM772.936 33.449c-3.072-3.243-4.949-7.68-4.949-12.117s1.877-8.875 4.949-12.117c3.243-3.072 7.68-4.949 12.117-4.949 4.608 0 8.875 1.877 12.117 4.949 3.072 3.243 4.949 7.68 4.949 12.117s-1.877 8.875-4.949 12.117c-6.485 6.315-17.749 6.315-24.234 0zM575.154 140.797h-387.424c-9.421 0-17.066 7.629-17.066 17.066s7.646 17.066 17.066 17.066h407.34l111.324 190.853c15.957 27.357 45.533 44.356 77.208 44.356 6.297 0 12.458-0.853 18.5-2.15v303.065l-248.913 248.93h-553.19v-1023.983h500.847c-12.51 26.47-11.486 57.719 3.396 83.233l70.911 121.564zM563.191 891.717l170.664-170.664h-170.664v170.664zM187.73 721.054h170.664c9.421 0 17.066-7.629 17.066-17.066s-7.646-17.066-17.066-17.066h-170.664c-9.421 0-17.066 7.629-17.066 17.066s7.646 17.066 17.066 17.066zM187.73 584.523h426.66c9.421 0 17.066-7.629 17.066-17.066s-7.646-17.066-17.066-17.066h-426.66c-9.421 0-17.066 7.629-17.066 17.066s7.646 17.066 17.066 17.066zM187.73 447.991h426.66c9.421 0 17.066-7.629 17.066-17.066s-7.646-17.066-17.066-17.066h-426.66c-9.421 0-17.066 7.629-17.066 17.066s7.646 17.066 17.066 17.066zM187.73 311.46h426.66c9.421 0 17.066-7.629 17.066-17.066s-7.646-17.066-17.066-17.066h-426.66c-9.421 0-17.066 7.629-17.066 17.066s7.646 17.066 17.066 17.066z" />
<glyph unicode="&#xe904;" glyph-name="folder" d="M981.163 499.2h-59.563v124.041c0 25.702-20.924 46.626-46.626 46.626h-21.641v290.133h-682.667v-34.133h-51.2v-34.133h-51.2v-102.4h-21.641c-25.702 0-46.626-20.924-46.626-46.626v-771.925l0.99-0.034c1.331-6.263 3.994-12.271 8.038-17.562 8.346-10.94 21.009-17.186 34.748-17.186h763.887c19.729 0 37.103 13.295 41.813 30.942l174.524 478.515v3.021c0 29.389-18.022 50.722-42.837 50.722zM307.2 874.667h170.667c9.421 0 17.067-7.629 17.067-17.067s-7.646-17.067-17.067-17.067h-170.667c-9.421 0-17.067 7.629-17.067 17.067s7.646 17.067 17.067 17.067zM307.2 755.2h409.6c9.421 0 17.067-7.629 17.067-17.067s-7.646-17.067-17.067-17.067h-409.6c-9.421 0-17.067 7.629-17.067 17.067s7.646 17.067 17.067 17.067zM307.2 635.733h409.6c9.421 0 17.067-7.629 17.067-17.067s-7.646-17.067-17.067-17.067h-409.6c-9.421 0-17.067 7.629-17.067 17.067s7.646 17.067 17.067 17.067zM34.133 80.623v662.084c0 6.895 5.615 12.493 12.493 12.493h21.641v-580.966l-34.133-93.611zM102.4 857.6h17.067v-542.942l-17.067-46.814v589.756zM887.467 499.2h-670.191c-19.729 0-37.103-13.295-41.813-30.942l-21.862-59.989v483.465h17.067v-375.467h682.667v119.467h21.641c6.878 0 12.493-5.598 12.493-12.493v-124.041z" />
<glyph unicode="&#xe905;" glyph-name="form" d="M864 414h-704v239.758h704zM240 494h544v79.758h-544zM864 807.758h-704v-80h704zM864 260.242h-384v-80h384zM400 100.242h-240v239.758h240zM240 180.242h80v79.758h-80zM904-64h-784c-66.172 0-120 53.828-120 120v784c0 66.172 53.828 120 120 120h784c66.172 0 120-53.828 120-120v-784c0-66.172-53.828-120-120-120zM120 880c-22.055 0-40-17.945-40-40v-784c0-22.055 17.945-40 40-40h784c22.055 0 40 17.945 40 40v784c0 22.055-17.945 40-40 40z" />
<glyph unicode="&#xe906;" glyph-name="group" d="M159.182 746.674c11.33-8.644 27.514-6.468 36.161 4.855 76.097 99.7 191.512 156.875 316.657 156.875s240.561-57.179 316.657-156.875c5.079-6.651 12.757-10.143 20.528-10.143 5.454 0 10.961 1.724 15.632 5.289 11.323 8.647 13.495 24.835 4.855 36.161-85.944 112.592-216.309 177.166-357.673 177.166s-271.729-64.574-357.669-177.166c-8.644-11.326-6.472-27.514 4.851-36.161zM786.229 609.061c0-44.425 36.147-80.572 80.572-80.572s80.572 36.147 80.572 80.572-36.147 80.572-80.572 80.572-80.572-36.143-80.572-80.572zM949.258 501.751c-0.186 0.062-20.487 6.292-20.487 6.292-7.351 2.245-15.336 0.862-21.49-3.744l-40.481-30.31-40.481 30.31c-6.158 4.61-14.146 5.992-21.49 3.744 0 0-20.301-6.23-20.487-6.292-32.665-10.892-54.61-41.339-54.61-75.769v-121.808c0-4.699 1.372-9.295 3.958-13.219l40.85-62.167v-163.261c0-13.298 10.778-24.076 24.076-24.076h136.371c13.298 0 24.076 10.778 24.076 24.076v163.261l40.85 62.167c2.582 3.927 3.958 8.523 3.958 13.219v121.808c0 34.43-21.949 64.877-54.613 75.769zM157.2 528.489c44.425 0 80.572 36.147 80.572 80.572s-36.147 80.572-80.572 80.572-80.575-36.143-80.575-80.572 36.147-80.572 80.575-80.572zM239.657 501.751c-0.186 0.062-20.487 6.292-20.487 6.292-7.354 2.245-15.332 0.862-21.49-3.744l-40.481-30.31-40.481 30.31c-6.154 4.61-14.146 5.992-21.49 3.744 0 0-20.301-6.23-20.487-6.292-32.665-10.892-54.61-41.339-54.61-75.769v-121.808c0-4.699 1.372-9.295 3.958-13.219l40.85-62.167v-163.261c0-13.298 10.778-24.076 24.076-24.076h136.368c13.298 0 24.076 10.778 24.076 24.076v163.261l40.85 62.167c2.582 3.927 3.958 8.523 3.958 13.219v121.808c0 34.43-21.949 64.877-54.61 75.769zM615.924 722.615c0 57.303-46.621 103.924-103.924 103.924s-103.924-46.621-103.924-103.924c0-57.306 46.621-103.924 103.924-103.924s103.924 46.618 103.924 103.924zM626.147 568.325l-0.172 0.055-29.662 9.102c-4.679 1.438-9.678-1.038-11.361-5.654l-62.371-171.132c-3.6-9.871-17.56-9.871-21.159 0l-62.371 171.132c-1.358 3.727-4.875 6.065-8.647 6.065-0.893 0-32.34-9.499-32.34-9.499-37.891-12.626-63.205-47.752-63.205-87.471v-181.031c0-1.796 0.528-3.555 1.514-5.058l65.081-99.035v-250.587c0-5.089 4.124-9.213 9.213-9.213h202.673c5.089 0 9.213 4.124 9.213 9.213v250.587l65.081 99.035c0.986 1.503 1.514 3.262 1.514 5.058v181.507c-0.003 39.546-25.417 74.614-62.998 86.926zM536.369 571.928c-2.576 2.807-6.344 4.22-10.157 4.22h-28.427c-3.81 0-7.578-1.414-10.157-4.22-3.989-4.348-4.568-10.626-1.738-15.532l15.195-22.907-7.113-60.009 14.008-37.264c1.365-3.748 6.665-3.748 8.033 0l14.008 37.264-7.113 60.009 15.195 22.907c2.834 4.906 2.255 11.185-1.734 15.532z" />
<glyph unicode="&#xe907;" glyph-name="invoice" d="M874 280h-240c-38.602 0-70-31.398-70-70v-110h380v110c0 38.602-31.398 70-70 70zM665.328 560c-22.438-25.422-32.898-59.297-28.695-92.953l15.883-127.047h202.969l15.883 127.047c4.203 33.648-6.25 67.531-28.695 92.953s-54.766 40-88.672 40-66.227-14.578-88.672-40zM252.109 787.945c-5.086-0.641-7.633-2.797-7.633-6.484 0-1.906 0.633-3.469 1.906-4.672 1.273-1.211 3.18-2.32 5.727-3.336zM504 40v170c0 57.313 37.297 106.055 88.891 123.297l-15.789 126.313c-6.344 50.719 9.422 101.781 43.25 140.094 33.82 38.32 82.539 60.297 133.648 60.297 10.125 0 20.156-0.875 30-2.555v302.555h-704v-1024h704v104zM370 840h294v-60h-294zM370 720h294v-60h-294zM240.281 737.414c-5.984 2.031-11.141 4.227-15.469 6.578s-7.891 5.023-10.688 8.016c-2.805 2.984-4.867 6.383-6.203 10.195s-2.008 8.195-2.008 13.156c0 6.867 1.148 12.938 3.438 18.211s5.406 9.82 9.352 13.633c3.945 3.813 8.563 6.867 13.844 9.156 5.281 2.281 10.914 3.75 16.891 4.383v19.258h15.273v-19.453c4.195-0.508 8.273-1.266 12.219-2.289 3.938-1.016 7.727-2.188 11.359-3.523 3.625-1.336 7.031-2.734 10.211-4.195s6.109-2.828 8.781-4.102l-16.039-30.703c-2.797 1.781-5.852 3.438-9.164 4.961-2.797 1.398-5.945 2.703-9.445 3.914-3.5 1.203-7.031 2.125-10.594 2.766v-17.164c1.148-0.258 2.352-0.602 3.625-1.047s2.609-0.859 4.008-1.242c6.234-1.906 11.867-4 16.898-6.289 5.023-2.289 9.32-4.992 12.883-8.102 3.563-3.125 6.305-6.906 8.211-11.352s2.859-9.852 2.859-16.211c0-7.5-1.305-13.883-3.914-19.156s-6.047-9.602-10.305-12.969c-4.266-3.367-9.133-5.906-14.602-7.625-5.477-1.719-11.141-2.766-16.992-3.148v-23.070h-15.273v23.453c-8.781 0.766-17.5 2.477-26.148 5.148-8.656 2.664-16.414 6.031-23.289 10.109l16.031 32.602c3.438-2.164 7.125-4.195 11.078-6.102 3.305-1.656 7.156-3.273 11.547-4.867 4.391-1.586 8.875-2.703 13.453-3.336v16.781c-3.945 1.016-7.891 2.227-11.828 3.625zM200 600h314v-60h-314zM200 480h314v-60h-314zM350 120c-49.625 0-90 40.375-90 90s40.375 90 90 90 90-40.375 90-90-40.375-90-90-90zM270.438 722.352c0 1.781-0.758 3.336-2.289 4.672-1.523 1.336-3.563 2.508-6.109 3.523v-14.109c3.055 0.258 5.219 0.891 6.492 1.906 1.266 1.016 1.906 2.352 1.906 4.008z" />
<glyph unicode="&#xe908;" glyph-name="meeting-deadlines" d="M512 704c25.709 0 46.559 20.85 46.559 46.538v116.366c0 25.709-20.85 46.559-46.559 46.559-25.687 0-46.538-20.85-46.538-46.559v-23.269h-110.548v-93.097h110.548c0-25.687 20.829-46.538 46.538-46.538zM762.161 704c25.731 0 46.559 20.85 46.559 46.538v116.366c0 25.709-20.85 46.559-46.559 46.559-25.665 0-46.516-20.85-46.516-46.559v-23.269h-110.548v-93.097h110.548c0.022-25.687 20.829-46.538 46.516-46.538zM977.441 843.634h-122.161v-93.097h75.623v-139.634h-837.806v139.634h122.183c0-25.709 20.85-46.538 46.538-46.538s46.538 20.85 46.538 46.538v116.366c0 25.709-20.85 46.559-46.538 46.559s-46.538-20.85-46.538-46.559v-23.269h-168.742c-25.709 0-46.538-20.85-46.538-46.538v-698.172c0-25.731 20.85-46.559 46.538-46.559h239.093c-19.979 27.692-34.947 59.152-43.705 93.097h-148.829v418.903h837.806v-418.903h-148.807c-8.78-33.966-23.748-65.405-43.705-93.097h239.071c25.731 0 46.559 20.85 46.559 46.559v698.172c-0.022 25.709-20.872 46.538-46.581 46.538zM622.331 175.986l-73.663 42.529c-0.98 11.177-6.798 20.959-15.534 27.060v128.37c0 11.7-9.477 21.177-21.155 21.177s-21.155-9.477-21.155-21.177v-128.37c-9.565-6.71-15.861-17.757-15.861-30.328 0-20.415 16.624-36.995 37.017-36.995 5.599 0 10.85 1.351 15.621 3.573l73.575-42.485c3.333-1.917 6.972-2.832 10.567-2.832 7.299 0 14.423 3.791 18.345 10.567 5.861 10.131 2.375 23.073-7.756 28.912zM512 199.408c-8.737 0-15.861 7.124-15.861 15.883 0 8.715 7.124 15.861 15.861 15.861s15.883-7.124 15.883-15.861c0-8.758-7.146-15.883-15.883-15.883zM512 448c-128.327 0-232.731-104.404-232.731-232.753 0-128.327 104.404-232.731 232.731-232.731 128.349 0 232.731 104.404 232.731 232.731 0 128.349-104.383 232.753-232.731 232.753zM512 24.87c-104.993 0-190.399 85.406-190.399 190.42s85.406 190.377 190.399 190.377c104.971 0 190.377-85.406 190.377-190.377 0-104.993-85.406-190.42-190.377-190.42z" />
<glyph unicode="&#xe909;" glyph-name="report" d="M604.125 384.857l-68.482 68.5 25.857 25.857 41.232-41.214 86.643 96.214c-44.982 35.304-109.509 30.259-148.455-11.607s-39.33-106.589-0.875-148.911c38.446-42.321 102.911-48.125 148.304-13.357s56.589 98.518 25.741 146.67zM822.857 832h-128v128h-566.857v-969.143h694.857zM457.143 832h109.714v-36.571h-109.714zM457.143 740.571h237.714v-36.571h-237.714zM329.143 740.571c-26.687-0.054-49.518 19.152-54.045 45.455-4.518 26.304 10.589 52.027 35.759 60.893v21.652h36.571v-21.652c21.839-7.723 36.473-28.33 36.571-51.491h-36.571c0 10.098-8.187 18.286-18.286 18.286s-18.286-8.187-18.286-18.286 8.187-18.286 18.286-18.286c26.687 0.054 49.518-19.152 54.045-45.455 4.518-26.304-10.589-52.027-35.759-60.893v-21.652h-36.571v21.652c-21.839 7.723-36.473 28.33-36.571 51.491h36.571c0-10.098 8.187-18.286 18.286-18.286s18.286 8.187 18.286 18.286-8.187 18.286-18.286 18.286zM420.571 539.429v-36.571h-91.429v36.571zM182.857 612.571h128v-36.571h-128zM182.857 539.429h109.714v-36.571h-109.714zM182.857 466.286h237.714v-36.571h-237.714zM420.571 393.143v-36.571h-146.286v36.571zM182.857 393.143h54.857v-36.571h-54.857zM457.143 27.429h-274.286v274.286h36.571v-237.714h237.714zM475.429 228.571h-36.571v29l-169.929-169.929-25.857 25.857 169.929 169.929h-29v36.571h91.429zM585.143 64h-73.143v36.571h73.143zM713.143 64h-91.429v36.571h91.429zM713.143 137.143h-201.143v36.571h201.143zM768 448c0.17-68.536-47.187-128.045-114.009-143.268-66.83-15.214-135.286 17.911-164.813 79.759s-12.25 135.911 41.607 178.304 129.902 41.804 183.089-1.42l40.536 45.054 27.179-24.464-42.464-47.179c18.714-25.071 28.839-55.5 28.875-86.786zM731.429 934.143v-65.571h65.571zM793.786 923.429l65.643-65.643v-903.5h-694.857v-18.286h731.429v987.429z" />
<glyph unicode="&#xe90a;" glyph-name="rss-symbol" d="M232.106 168.468c24.805-24.779 39.889-58.388 39.982-95.811-0.095-37.347-15.177-70.968-39.889-95.634l-0.095-0.045c-24.755-24.645-58.573-39.713-96.177-39.713-37.556 0-71.289 15.113-96.039 39.756-24.688 24.669-39.887 58.247-39.887 95.637 0 37.423 15.199 71.11 39.887 95.832v-0.021c24.762 24.664 58.495 39.842 96.039 39.842 37.606 0 71.391-15.22 96.18-39.842zM232.106 168.489v-0.021c0.045 0 0.045 0 0.045 0l-0.045 0.021zM39.887-23.023c0 0 0 0 0 0.045-0.045 0-0.045 0-0.045 0l0.045-0.045zM0.11 611.795v-195.528c127.651-0.079 248.378-50.224 338.727-140.711 90.332-90.202 140.266-211.112 140.471-339.201h0.067v-0.355h196.333c-0.155 186.253-75.865 354.966-198.266 477.455-122.42 122.473-291.065 198.223-477.332 198.34zM0.467 960v-195.433c456.295-0.333 827.222-371.834 827.532-828.565h195.999c-0.133 282.287-114.866 538.033-300.288 723.584-185.488 185.486-441.066 300.293-723.243 300.414z" />
<glyph unicode="&#xe90b;" glyph-name="to-do" d="M110.964 537.138c-3.902 4.264-9.388 6.732-15.166 6.824l-0.444 0.008c-8.432-0.006-16.060-5.002-19.438-12.728s-1.866-16.718 3.854-22.912l15.032-16.284 30.042 30.052-13.88 15.040zM304.16 298.112c-2.994 22.64-12.932 43.796-28.444 60.556l-125.12 135.548-30.052-30.052 122.024-132.19c16.33-17.65 37.94-29.53 61.592-33.862zM930.9 960h-56.888v-41.42c26.122-9.236 41.792-35.948 37.106-63.256s-28.362-47.268-56.070-47.268-51.384 19.96-56.070 47.268c-4.686 27.308 10.984 54.020 37.106 63.256v41.42h-227.554v-41.42c26.122-9.236 41.792-35.948 37.106-63.256s-28.362-47.268-56.070-47.268c-27.708 0-51.384 19.96-56.070 47.268s10.984 54.020 37.106 63.256v41.42h-227.554v-41.42c26.122-9.236 41.792-35.948 37.106-63.256s-28.362-47.268-56.070-47.268c-27.706 0-51.384 19.96-56.070 47.268s10.984 54.020 37.106 63.256v41.42h-56.888c-10.468-0.014-18.95-8.496-18.964-18.964v-474.074c0-0.6-0.288-1.108-0.342-1.694l74.658-80.88c24.958-27.016 38.992-62.34 39.378-99.118l13.494-13.494c4.848-4.778 6.764-11.788 5.018-18.368s-6.884-11.718-13.464-13.464-13.59 0.17-18.368 5.018l-13.842 13.842c-31.714 1.792-62.030 13.662-86.53 33.88v-337.722c0.014-10.468 8.496-18.95 18.964-18.964h682.666c10.468 0.014 18.95 8.496 18.964 18.964v986.074c-0.014 10.468-8.496 18.95-18.964 18.964zM396.14 512.472l-56.888-75.852c-3.298-4.398-8.342-7.148-13.824-7.538-0.444-0.028-0.898-0.046-1.342-0.046-5.030-0.002-9.854 1.998-13.406 5.556l-37.926 37.926c-7.29 7.424-7.236 19.336 0.12 26.692 7.358 7.358 19.27 7.412 26.692 0.12l22.462-22.464 43.778 58.362c4.066 5.418 10.714 8.256 17.438 7.444s12.506-5.15 15.166-11.38c2.662-6.226 1.796-13.402-2.27-18.82v0zM396.14 721.064v0l-56.888-75.852c-3.298-4.398-8.342-7.148-13.824-7.536-0.444-0.028-0.898-0.046-1.342-0.046-5.030-0.002-9.854 1.998-13.406 5.556l-37.926 37.926c-7.29 7.424-7.236 19.336 0.12 26.692s19.27 7.412 26.692 0.12l22.462-22.462 43.778 58.362c4.066 5.418 10.714 8.256 17.438 7.444s12.506-5.15 15.166-11.38c2.662-6.23 1.796-13.406-2.27-18.824zM892.974 30.814h-436.148c-10.472 0-18.962 8.49-18.962 18.964 0 10.472 8.49 18.962 18.962 18.962h436.148c10.472 0 18.964-8.49 18.964-18.962 0-10.474-8.49-18.964-18.964-18.964zM892.974 239.408h-436.148c-10.472 0-18.962 8.49-18.962 18.964s8.49 18.964 18.962 18.964h436.148c10.472 0 18.964-8.49 18.964-18.964s-8.49-18.964-18.964-18.964zM892.974 448h-436.148c-10.472 0-18.962 8.49-18.962 18.964 0 10.472 8.49 18.962 18.962 18.962h436.148c10.472 0 18.964-8.49 18.964-18.962 0-10.474-8.49-18.964-18.964-18.964zM892.974 656.592h-436.148c-10.472 0-18.962 8.49-18.962 18.962s8.49 18.964 18.962 18.964h436.148c10.472 0 18.964-8.49 18.964-18.964s-8.49-18.962-18.964-18.962zM343.050 865.186c0-10.474-8.49-18.964-18.964-18.964s-18.964 8.49-18.964 18.964c0 10.474 8.49 18.964 18.964 18.964s18.964-8.49 18.964-18.964zM874.012 865.186c0-10.474-8.49-18.964-18.964-18.964s-18.964 8.49-18.964 18.964c0 10.474 8.49 18.964 18.964 18.964s18.964-8.49 18.964-18.964zM608.53 865.186c0-10.474-8.49-18.964-18.964-18.964s-18.964 8.49-18.964 18.964c0 10.474 8.49 18.964 18.964 18.964s18.964-8.49 18.964-18.964z" />
<glyph unicode="&#xe90c;" glyph-name="hidden-widget" d="M925.867 750.933v110.933h-541.867l38.4-110.933h503.467zM384 695.467l-76.8 221.867h-264.533v-277.333h938.667v55.467h-597.333zM345.6 38.4l59.733 34.133c17.067-12.8 34.133-21.333 51.2-29.867v-64h110.933v68.267c17.067 8.533 38.4 17.067 51.2 29.867l59.733-34.133 55.467 93.867-59.733 34.133c0 8.533 4.267 21.333 4.267 29.867s0 21.333-4.267 29.867l59.733 34.133-55.467 98.133-59.733-34.133c-17.067 12.8-34.133 21.333-51.2 29.867v64h-110.933v-64c-17.067-8.533-38.4-17.067-51.2-29.867l-59.733 34.133-55.467-93.867 59.733-34.133c0-8.533-4.267-21.333-4.267-29.867s0-21.333 4.267-29.867l-59.733-34.133 55.467-102.4zM512 256c29.867 0 55.467-25.6 55.467-55.467s-25.6-55.467-55.467-55.467-55.467 25.6-55.467 55.467c0 29.867 25.6 55.467 55.467 55.467zM42.667 89.6h213.333l-38.4 64 72.533 46.933c0 0 0 0 0 0l-72.533 46.933 110.933 192 72.533-46.933v85.333h221.867v-85.333l72.533 46.933 110.933-192-72.533-46.933 72.533-46.933-38.4-64h213.333v494.933h-938.667v-494.933z" />
<glyph unicode="&#xe90d;" glyph-name="mytaxportal" d="M704 456.533c0-106.667-85.333-196.267-196.267-196.267-106.667 0-196.267 85.333-196.267 196.267 0 106.667 85.333 196.267 196.267 196.267 106.667-4.267 196.267-89.6 196.267-196.267zM998.4 448c-17.067 51.2-46.933 93.867-85.333 136.533-46.933 46.933-106.667 81.067-170.667 98.133-76.8 21.333-157.867 17.067-230.4-12.8-51.2-17.067-93.867-46.933-136.533-85.333 0 0 0 0 0 0 72.533 72.533 196.267 72.533 268.8 0v0 0c38.4-38.4 68.267-85.333 85.333-136.533 29.867-72.533 29.867-157.867 12.8-234.667-17.067-64-51.2-119.467-98.133-170.667-38.4-38.4-85.333-68.267-136.533-85.333 136.533-51.2 294.4-21.333 401.067 85.333 110.933 115.2 140.8 273.067 89.6 405.333zM25.6 448c17.067-51.2 46.933-93.867 85.333-136.533 46.933-46.933 106.667-81.067 170.667-98.133 76.8-21.333 157.867-17.067 234.667 12.8 51.2 17.067 93.867 46.933 136.533 85.333 0 0 0 0 0 0-72.533-72.533-196.267-72.533-268.8 0v0 0c-38.4 38.4-68.267 85.333-85.333 136.533-29.867 72.533-29.867 157.867-12.8 234.667 17.067 64 51.2 119.467 98.133 170.667 38.4 38.4 85.333 68.267 136.533 85.333-136.533 51.2-294.4 21.333-401.067-85.333-115.2-115.2-145.067-273.067-93.867-405.333z" />
<glyph unicode="&#xe90e;" glyph-name="toolbox" d="M67.228 584.82c5.383-18.455 12.852-36.251 22.3-52.948l-26.913-33.944c-8.788-11.095-7.799-26.913 2.087-36.91l46.357-46.357c9.996-9.996 25.815-10.874 36.91-2.086l33.724 26.694c17.356-9.997 35.811-17.796 55.035-23.288l5.053-43.391c1.648-14.061 13.512-24.606 27.572-24.606h65.581c14.061 0 25.925 10.547 27.572 24.606l4.833 41.853c20.652 5.383 40.425 13.402 58.99 23.837l32.625-25.815c11.095-8.788 26.913-7.799 36.91 2.087l46.357 46.357c9.996 9.996 10.875 25.815 2.087 36.91l-25.375 32.186c10.546 18.236 18.784 37.679 24.277 58.001l39.107 4.504c14.062 1.648 24.606 13.512 24.606 27.572v65.581c0 14.061-10.546 25.925-24.606 27.572l-38.557 4.504c-5.274 20.103-13.182 39.326-23.287 57.342l23.728 29.989c8.788 11.095 7.799 26.913-2.087 36.91l-46.247 46.247c-9.996 9.996-25.815 10.875-36.91 2.087l-29.11-23.069c-18.894 11.095-39.108 19.553-60.308 25.266l-4.394 37.679c-1.648 14.061-13.512 24.606-27.572 24.606h-65.581c-14.061 0-25.925-10.546-27.572-24.606l-4.394-37.679c-21.75-5.822-42.512-14.61-61.846-26.144l-30.209 23.947c-11.095 8.788-26.913 7.799-36.91-2.087l-46.357-46.357c-9.996-9.996-10.875-25.815-2.087-36.91l25.266-31.966c-10.106-18.235-17.796-37.679-22.849-57.891l-40.425-4.614c-14.061-1.648-24.606-13.512-24.606-27.572v-65.581c0-14.061 10.546-25.925 24.606-27.572l42.621-4.944zM304.834 762.228c59.758 0 108.422-48.664 108.422-108.422s-48.664-108.422-108.422-108.422c-59.757 0-108.422 48.664-108.422 108.422s48.664 108.422 108.422 108.422zM953.169 568.672l-34.603 29.22c-10.654 9.008-26.364 8.568-36.469-0.989l-19.114-17.906c-16.147 7.799-33.283 13.292-50.97 16.478l-5.38 26.364c-2.746 13.621-15.379 23.069-29.222 21.97l-45.148-3.845c-13.841-1.208-24.716-12.523-25.156-26.474l-0.878-26.803c-17.357-6.261-33.725-14.83-48.665-25.595l-22.848 15.159c-11.646 7.69-27.134 5.493-36.141-5.163l-29.22-34.822c-9.009-10.655-8.569-26.364 0.986-36.47l19.994-21.31c-6.922-15.599-11.865-31.967-14.72-48.773l-28.561-5.822c-13.621-2.746-23.069-15.379-21.97-29.221l3.845-45.148c1.208-13.841 12.523-24.716 26.474-25.156l30.868-0.988c5.605-14.72 12.963-28.672 21.86-41.743l-17.245-26.034c-7.69-11.644-5.493-27.133 5.162-36.141l34.603-29.22c10.657-9.008 26.364-8.568 36.471 0.989l22.629 21.201c14.83-6.921 30.427-12.084 46.466-15.159l6.263-30.978c2.746-13.621 15.379-23.069 29.22-21.97l45.148 3.845c13.841 1.208 24.716 12.522 25.156 26.474l0.989 30.32c16.478 5.822 32.075 13.731 46.466 23.507l24.937-16.478c11.644-7.69 27.132-5.493 36.141 5.163l29.22 34.603c9.007 10.655 8.567 26.364-0.989 36.47l-20.104 21.31c7.361 15.599 12.745 32.076 15.818 48.994l27.463 5.602c13.621 2.746 23.069 15.379 21.97 29.221l-3.845 45.148c-1.208 13.841-12.523 24.716-26.474 25.156l-27.572 0.879c-5.713 16.038-13.403 31.196-22.959 45.258l15.048 22.629c7.91 11.642 5.713 27.241-4.943 36.248zM783.013 307.669c-48.773-4.175-91.837 32.186-95.9 80.958-4.175 48.773 32.187 91.836 80.958 95.9 48.773 4.174 91.837-32.187 95.9-80.96 4.175-48.775-32.187-91.836-80.958-95.899zM225.193 186.174c-13.841-1.428-24.497-13.071-24.606-27.023l-0.33-27.792c-0.22-13.951 10.106-25.815 23.947-27.573l20.432-2.635c3.405-12.414 8.239-24.278 14.5-35.483l-13.182-16.258c-8.788-10.874-8.129-26.474 1.648-36.47l19.443-19.883c9.777-9.996 25.375-11.095 36.47-2.527l16.367 12.633c11.534-6.811 23.729-12.194 36.47-15.928l2.197-21.091c1.428-13.841 13.072-24.497 27.023-24.606l27.793-0.33c13.95-0.22 25.815 10.106 27.572 23.947l2.527 19.993c13.842 3.406 27.024 8.568 39.546 15.379l15.379-12.413c10.875-8.788 26.475-8.129 36.471 1.648l19.883 19.443c9.996 9.776 11.095 25.375 2.528 36.47l-11.756 15.27c7.25 12.084 12.854 24.936 16.698 38.448l18.235 1.867c13.841 1.428 24.495 13.072 24.606 27.023l0.328 27.793c0.221 13.95-10.105 25.815-23.946 27.572l-17.797 2.307c-3.405 13.402-8.457 26.364-15.048 38.448l11.095 13.621c8.788 10.875 8.129 26.474-1.648 36.47l-19.442 19.883c-9.777 9.997-25.378 11.096-36.471 2.527l-13.293-10.216c-12.522 7.58-25.925 13.402-39.984 17.356l-1.759 17.246c-1.428 13.842-13.071 24.497-27.023 24.606l-27.792 0.33c-13.951 0.22-25.815-10.106-27.573-23.947l-2.197-17.138c-14.499-3.734-28.45-9.447-41.412-16.916l-13.731 11.205c-10.875 8.788-26.475 8.128-36.471-1.648l-19.993-19.554c-9.996-9.776-11.095-25.375-2.527-36.469l11.754-15.16c-6.811-12.084-12.193-24.935-15.709-38.448l-19.223-1.977zM404.578 217.592c39.876-0.439 71.841-33.286 71.403-73.161-0.439-39.876-33.286-71.841-73.161-71.403s-71.841 33.285-71.403 73.161c0.44 39.875 33.286 71.841 73.161 71.403z" />
<glyph unicode="&#xe90f;" glyph-name="ascendant-bars-graphic" d="M1024 0v-64h-1024v1024h64v-960h960zM457.812 604.562l261.438-65.312 90.5 150.75 82-49.25 4.25 255.25-223.188-123.876 82-49.25-66.062-110.126-250.562 62.688-268.812-268.812 45.25-45.25 243.186 243.188zM384 64h128v461.062l-34.562 8.624-93.438-93.436v-376.25zM192 293.5v-229.5h128v312.25l-105.376-105.376-22.624 22.626zM768 496v-432h128v499.562l-64.312 38.562-63.688-106.124zM704 64v413.062l-128 32v-445.062h128z" />
<glyph unicode="&#xe910;" glyph-name="efin-icon" horiz-adv-x="2528" d="M627.885 420.609h-328.691v-303.407h366.617v-92.708h-476.181v842.798h455.111v-92.708h-345.547v-265.481h328.691v-88.494zM804.872 867.292h455.111v-92.708h-345.547v-278.123h320.263v-88.494h-320.263v-379.259h-109.564v838.584zM1521.251 867.292v-842.798h-109.564v842.798h109.564zM1710.881 24.494v842.798h117.992l269.695-425.613c63.21-96.922 109.564-185.416 151.704-273.909h4.214c-8.428 113.778-12.642 214.914-12.642 345.547v353.975h101.136v-842.798h-109.564l-265.481 429.827c-58.996 92.708-113.778 189.63-155.918 282.337h-4.214c4.214-109.564 4.214-210.7 4.214-349.761v-358.189h-101.136z" />
<glyph unicode="&#xe911;" glyph-name="dashboard" d="M568.888 960h455.112v-341.333h-455.112v341.333zM0 960h455.112v-568.888h-455.112v568.888zM0 277.333h455.112v-341.333h-455.112v341.333zM568.888 504.888h455.112v-568.888h-455.112v568.888z" />
<glyph unicode="&#xe912;" glyph-name="folder1" d="M981.163 499.2h-59.563v106.974c0 25.702-20.924 46.626-46.626 46.626h-21.641v307.2h-682.667v-34.133h-51.2v-34.133h-51.2v-119.467h-21.641c-25.702 0-46.626-20.924-46.626-46.626v-745.591h0.102c-0.085-9.609 2.901-19.012 8.909-26.88 8.363-10.923 21.026-17.169 34.765-17.169h763.887c19.746 0 37.12 13.312 41.796 30.942l174.541 478.515v3.021c0 29.389-18.022 50.722-42.837 50.722zM874.974 618.667c6.895 0 12.493-5.598 12.493-12.493v-106.974h-34.133v119.467h21.641zM819.2 925.867v-426.667h-601.924c-3.977 0-7.799-0.666-11.503-1.673-0.307-0.085-0.666-0.051-0.973-0.137v428.476h614.4zM170.667 891.733v-436.651l-1.075-2.953-15.991-43.827v483.43h17.067zM102.4 857.6h17.067v-542.891l-17.067-46.78v589.67zM34.133 725.641c0 6.895 5.615 12.493 12.493 12.493h21.641v-562.227l-34.133-93.099v642.833zM816.947-22.767c-1.109-4.181-4.932-7.1-9.284-7.1h-763.887c-4.147 0-6.571 2.372-7.646 3.789-1.075 1.399-2.731 4.369-2.099 6.963l173.943 477.065c1.126 4.181 4.966 7.117 9.301 7.117h763.887c6.468 0 8.141-9.318 8.55-13.978l-172.766-473.856zM307.2 669.867h409.6c9.421 0 17.067 7.629 17.067 17.067s-7.646 17.067-17.067 17.067h-409.6c-9.421 0-17.067-7.629-17.067-17.067s7.646-17.067 17.067-17.067zM307.2 789.333h170.667c9.421 0 17.067 7.629 17.067 17.067s-7.646 17.067-17.067 17.067h-170.667c-9.421 0-17.067-7.629-17.067-17.067s7.646-17.067 17.067-17.067zM307.2 550.4h409.6c9.421 0 17.067 7.629 17.067 17.067s-7.646 17.067-17.067 17.067h-409.6c-9.421 0-17.067-7.629-17.067-17.067s7.646-17.067 17.067-17.067z" />
<glyph unicode="&#xe913;" glyph-name="invoice1" d="M874 280h-240c-38.602 0-70-31.398-70-70v-110h380v110c0 38.602-31.398 70-70 70zM665.328 560c-22.438-25.422-32.898-59.297-28.695-92.953l15.883-127.047h202.969l15.883 127.047c4.203 33.648-6.25 67.531-28.695 92.953s-54.766 40-88.672 40-66.227-14.578-88.672-40zM252.109 787.945c-5.086-0.641-7.633-2.797-7.633-6.484 0-1.906 0.633-3.469 1.906-4.672 1.273-1.211 3.18-2.32 5.727-3.336zM504 40v170c0 57.313 37.297 106.055 88.891 123.297l-15.789 126.313c-6.344 50.719 9.422 101.781 43.25 140.094 33.82 38.32 82.539 60.297 133.648 60.297 10.125 0 20.156-0.875 30-2.555v302.555h-704v-1024h704v104zM370 840h294v-60h-294zM370 720h294v-60h-294zM240.281 737.414c-5.984 2.031-11.141 4.227-15.469 6.578s-7.891 5.023-10.688 8.016c-2.805 2.984-4.867 6.383-6.203 10.195s-2.008 8.195-2.008 13.156c0 6.867 1.148 12.938 3.438 18.211s5.406 9.82 9.352 13.633c3.945 3.813 8.563 6.867 13.844 9.156 5.281 2.281 10.914 3.75 16.891 4.383v19.258h15.273v-19.453c4.195-0.508 8.273-1.266 12.219-2.289 3.938-1.016 7.727-2.188 11.359-3.523 3.625-1.336 7.031-2.734 10.211-4.195s6.109-2.828 8.781-4.102l-16.039-30.703c-2.797 1.781-5.852 3.438-9.164 4.961-2.797 1.398-5.945 2.703-9.445 3.914-3.5 1.203-7.031 2.125-10.594 2.766v-17.164c1.148-0.258 2.352-0.602 3.625-1.047s2.609-0.859 4.008-1.242c6.234-1.906 11.867-4 16.898-6.289 5.023-2.289 9.32-4.992 12.883-8.102 3.563-3.125 6.305-6.906 8.211-11.352s2.859-9.852 2.859-16.211c0-7.5-1.305-13.883-3.914-19.156s-6.047-9.602-10.305-12.969c-4.266-3.367-9.133-5.906-14.602-7.625-5.477-1.719-11.141-2.766-16.992-3.148v-23.070h-15.273v23.453c-8.781 0.766-17.5 2.477-26.148 5.148-8.656 2.664-16.414 6.031-23.289 10.109l16.031 32.602c3.438-2.164 7.125-4.195 11.078-6.102 3.305-1.656 7.156-3.273 11.547-4.867 4.391-1.586 8.875-2.703 13.453-3.336v16.781c-3.945 1.016-7.891 2.227-11.828 3.625zM200 600h314v-60h-314zM200 480h314v-60h-314zM350 120c-49.625 0-90 40.375-90 90s40.375 90 90 90 90-40.375 90-90-40.375-90-90-90zM270.438 722.352c0 1.781-0.758 3.336-2.289 4.672-1.523 1.336-3.563 2.508-6.109 3.523v-14.109c3.055 0.258 5.219 0.891 6.492 1.906 1.266 1.016 1.906 2.352 1.906 4.008z" />
<glyph unicode="&#xe914;" glyph-name="repairing-service" d="M1020.776 504.846c-1.616 14.392-18.405 25.22-32.921 25.22-46.915 0-88.551 27.536-106.012 70.155-17.824 43.642-6.324 94.529 28.63 126.596 11.009 10.066 12.351 26.92 3.122 38.62-24.020 30.494-51.308 58.043-81.111 81.917-11.66 9.353-28.794 8.051-38.913-3.149-30.516-33.798-85.336-46.357-127.698-28.683-44.067 18.542-71.882 63.211-69.15 111.158 0.899 15.070-10.119 28.165-25.136 29.914-38.248 4.428-76.833 4.557-115.192 0.301-14.826-1.639-25.835-14.423-25.344-29.303 1.661-47.477-26.469-91.359-70.111-109.236-41.853-17.098-96.292-4.632-126.746 28.869-10.066 11.036-26.898 12.391-38.638 3.237-30.68-24.077-58.584-51.644-82.825-81.891-9.446-11.757-8.051-28.798 3.051-38.899 35.644-32.279 47.136-83.604 28.63-127.756-17.669-42.092-61.374-69.208-111.402-69.208-16.235 0.523-27.788-10.385-29.582-25.149-4.499-38.452-4.548-77.653-0.217-116.419 1.616-14.454 18.901-25.189 33.576-25.189 44.594 1.134 87.382-26.455 105.357-70.151 17.886-43.642 6.373-94.507-28.639-126.618-10.952-10.066-12.351-26.881-3.104-38.567 23.776-30.304 51.091-57.871 80.983-81.948 11.735-9.45 28.803-8.126 38.975 3.087 30.636 33.878 85.447 46.414 127.636 28.705 44.196-18.493 71.997-63.158 69.283-111.118-0.89-15.070 10.154-28.205 25.118-29.914 19.574-2.29 39.249-3.423 58.987-3.423 18.732 0 37.469 1.023 56.206 3.109 14.844 1.639 25.835 14.437 25.335 29.321-1.714 47.455 26.478 91.341 70.067 109.183 42.132 17.209 96.327 4.614 126.799-28.838 10.119-11.014 26.85-12.351 38.638-3.233 30.627 24.015 58.477 51.569 82.825 81.895 9.455 11.735 8.113 28.798-3.051 38.917-35.636 32.257-47.189 83.604-28.683 127.712 17.395 41.525 59.474 69.407 104.732 69.407l6.333-0.168c14.694-1.191 28.196 10.123 29.972 25.114 4.521 38.488 4.57 77.644 0.221 116.424zM511.998 152.829c-163.024 0-295.173 132.149-295.173 295.168s132.153 295.168 295.173 295.168 295.173-132.149 295.173-295.168c0-55.333-15.256-107.088-41.751-151.346l-129.248 129.253c9.357 22.062 14.299 45.98 14.295 70.665 0 48.336-18.825 93.777-53.008 127.951-34.174 34.174-79.614 52.995-127.942 52.995-16.128 0-32.181-2.143-47.712-6.373-6.802-1.856-12.364-7.462-14.175-14.277-1.851-6.97 0.235-14.113 5.682-19.565 0 0 63.809-64.301 85.159-85.646 2.236-2.236 2.232-7.573 1.918-9.495l-0.199-1.404c-2.152-23.471-6.302-51.644-9.725-62.472-0.461-0.456-0.895-0.841-1.364-1.311-0.492-0.492-0.943-0.965-1.417-1.453-10.969-3.521-39.577-7.719-63.42-9.853l0.004 0.128-1.072-0.27c-0.19-0.022-0.545-0.049-1.014-0.049-2.577 0-6.368 0.722-9.813 4.163-22.222 22.222-83.529 83.091-83.529 83.091-5.5 5.482-11.142 6.634-14.902 6.634-8.764 0-16.611-6.333-19.082-15.415-16.877-62.454 1.014-129.634 46.702-175.326 34.183-34.179 79.628-52.999 127.964-52.999 24.684 0 48.602 4.938 70.66 14.295l130.652-130.652c-45.87-29.352-100.339-46.437-158.835-46.437z" />
<glyph unicode="&#xe915;" glyph-name="user_research" d="M837.395 804.627h-650.791c-16.896 0-30.72-13.824-30.72-30.72v-74.547h712.23v74.547c0.001 16.896-13.823 30.72-30.719 30.72zM643.839 739.194h-28.672c-7.040 0-12.8 5.76-12.8 12.8s5.76 12.8 12.8 12.8h28.672c7.040 0 12.8-5.76 12.8-12.8s-5.76-12.8-12.8-12.8zM729.343 739.194h-28.672c-7.040 0-12.8 5.76-12.8 12.8s5.76 12.8 12.8 12.8h28.672c7.040 0 12.8-5.76 12.8-12.8s-5.76-12.8-12.8-12.8zM814.847 739.194h-28.672c-7.040 0-12.8 5.76-12.8 12.8s5.76 12.8 12.8 12.8h28.672c7.040 0 12.8-5.76 12.8-12.8s-5.76-12.8-12.8-12.8zM540.127 292.979c-0.060 0.607-0.146 1.205-0.244 1.8 28.792 5.197 49.213 18.192 49.213 33.413 0 3.297-0.963 6.492-2.765 9.533 46.817 26.102 78.49 76.134 78.49 133.55 0 84.408-68.424 152.832-152.822 152.832s-152.822-68.424-152.822-152.832c0-57.416 31.672-107.448 78.49-133.55-1.802-3.041-2.765-6.236-2.765-9.533 0-15.221 20.422-28.216 49.213-33.413-0.097-0.595-0.183-1.193-0.244-1.8l-15.249-153.713c-2.545-25.649 17.602-47.894 43.377-47.894v0c25.775 0 45.921 22.244 43.377 47.894l-15.249 153.713zM460.595 354.908c-44.616 19.784-75.817 64.502-75.817 116.367 0 70.154 57.068 127.232 127.222 127.232s127.222-57.078 127.222-127.232c0-51.866-31.201-96.584-75.817-116.367-15.729-6.984-33.116-10.854-51.405-10.854s-35.676 3.871-51.405 10.854zM524.8 134.77c0-7.069-5.73-12.8-12.8-12.8s-12.8 5.731-12.8 12.8v57.344c0 7.070 5.73 12.8 12.8 12.8s12.8-5.73 12.8-12.8v-57.344zM553.349 378.307c7.926 3.512 15.247 7.956 21.852 13.179l-19.948 10.373c-11.817 6.154-19.251 18.35-19.292 31.672 12.718 9.902 22.569 26.921 27.013 44.892 0.297-0.051 0.604-0.082 0.901-0.082 4.772 0 8.643 6.42 8.673 12.032 2.079 2.406 3.42 5.99 3.42 9.288 0 5.622-3.891 10.179-8.673 10.179-0.86 0-1.69-0.143-2.468-0.42 0 0 0 0 0 0.010h0.010c0 0 5.356 4.506 3.308 23.194s-12.943 25.856-12.943 25.856c1.28 1.188 1.905 2.55 2.12 3.912-4.577 2.273-9.359 4.209-14.295 5.775-14.899-0.266-39.178 2.263-52.224 2.437-0.47 0.006-0.921 0.008-1.361 0.008-2.631 0.009-4.733-0.092-6.114-0.356-3.912-0.748-7.424-2.509-10.598-5.243 0.216 0.091 0.439 0.169 0.656 0.259-0.105-0.088-0.214-0.169-0.318-0.259-5.54-4.772-10.066-12.503-13.978-22.917-4.577-12.206-2.335-26.112-0.891-32.41-0.492 0.092-0.983 0.154-1.495 0.154-4.792 0-8.673-4.557-8.673-10.179 0-3.297 1.341-6.881 3.41-9.288 0.041-5.612 3.901-12.032 8.673-12.032 0.532 0 1.044 0.092 1.546 0.246 4.434-18.033 14.295-35.123 27.054-45.056-0.041-13.322-7.475-25.518-19.292-31.672l-19.948-10.373c6.605-5.222 13.916-9.667 21.832-13.179 12.943-5.745 26.747-8.653 41.032-8.653s28.088 2.908 41.011 8.653zM155.885 299.52c0-16.896 13.824-30.72 30.72-30.72h269.143l0.682 6.872c-28.317 10.153-45.611 28.042-47.032 49.621-47.18 33.198-75.82 87.585-75.82 145.983 0 98.388 80.040 178.432 178.422 178.432s178.422-80.044 178.422-178.432c0-58.398-28.64-112.785-75.82-145.983-1.421-21.579-18.716-39.468-47.032-49.621l0.682-6.872h269.143c16.896 0 30.72 13.824 30.72 30.72v374.239h-712.229v-374.239zM816.755 306.951h-43.691c-7.070 0-12.8 5.73-12.8 12.8s5.73 12.8 12.8 12.8h43.691c7.070 0 12.8-5.731 12.8-12.8 0-7.070-5.731-12.8-12.8-12.8zM816.755 507.609h-20.821c-7.070 0-12.8 5.73-12.8 12.8s5.73 12.8 12.8 12.8h20.821c7.070 0 12.8-5.731 12.8-12.8s-5.731-12.8-12.8-12.8zM795.933 635.609h20.821c7.070 0 12.8-5.731 12.8-12.8s-5.73-12.8-12.8-12.8h-20.821c-7.070 0-12.8 5.73-12.8 12.8s5.731 12.8 12.8 12.8zM704.456 635.609h43.691c7.070 0 12.8-5.731 12.8-12.8s-5.73-12.8-12.8-12.8h-43.691c-7.070 0-12.8 5.73-12.8 12.8s5.73 12.8 12.8 12.8zM704.456 584.409h89.088c0.403 0 0.801-0.024 1.195-0.061 0.394 0.037 0.792 0.061 1.195 0.061h20.821c7.070 0 12.8-5.731 12.8-12.8s-5.73-12.8-12.8-12.8h-20.821c-0.403 0-0.801 0.024-1.195 0.060-0.394-0.036-0.792-0.060-1.195-0.060h-89.088c-7.070 0-12.8 5.731-12.8 12.8s5.73 12.8 12.8 12.8zM704.456 332.551h20.821c7.070 0 12.8-5.731 12.8-12.8 0-7.070-5.73-12.8-12.8-12.8h-20.821c-7.070 0-12.8 5.73-12.8 12.8s5.73 12.8 12.8 12.8zM319.544 306.951h-20.821c-7.069 0-12.8 5.73-12.8 12.8s5.731 12.8 12.8 12.8h20.821c7.070 0 12.8-5.731 12.8-12.8 0-7.070-5.73-12.8-12.8-12.8zM275.853 635.609h43.691c7.070 0 12.8-5.731 12.8-12.8s-5.73-12.8-12.8-12.8h-43.691c-7.070 0-12.8 5.73-12.8 12.8s5.731 12.8 12.8 12.8zM207.245 635.609h20.821c7.069 0 12.8-5.731 12.8-12.8s-5.73-12.8-12.8-12.8h-20.821c-7.070 0-12.8 5.73-12.8 12.8s5.731 12.8 12.8 12.8zM207.245 584.409h20.821c0.403 0 0.801-0.024 1.195-0.061 0.394 0.037 0.792 0.061 1.195 0.061h89.088c7.070 0 12.8-5.731 12.8-12.8s-5.73-12.8-12.8-12.8h-89.088c-0.403 0-0.801 0.024-1.195 0.060-0.394-0.036-0.792-0.060-1.195-0.060h-20.821c-7.070 0-12.8 5.731-12.8 12.8s5.731 12.8 12.8 12.8zM207.245 533.209h20.821c7.069 0 12.8-5.731 12.8-12.8s-5.73-12.8-12.8-12.8h-20.821c-7.070 0-12.8 5.73-12.8 12.8s5.731 12.8 12.8 12.8zM207.245 332.551h43.691c7.070 0 12.8-5.731 12.8-12.8 0-7.070-5.73-12.8-12.8-12.8h-43.691c-7.070 0-12.8 5.73-12.8 12.8s5.731 12.8 12.8 12.8z" />
</font>
</defs>
</svg>
